#!OML:ASF E:\Steps\Project 1\Capture day 1\Session 2\Subject.ASF
:FULLY-SPECIFIED
:DEGREES
5204
root 10.445 7.7137 4.64654 30.5082 -2.42417 0.837667
lowerback 20.5552 1.02846 -2.4515
upperback 11.8881 0.894064 -0.089945
thorax 1.36551 0.317355 1.12232
lowerneck 7.28809 -4.26625 -1.35791
upperneck -31.6209 -3.20461 11.6502
head -11.1533 -2.85193 4.95361
rclavicle 1.39149e-015 3.37934e-015
rhumerus -8.56007 17.3059 -76.1021
rradius 56.4759
rwrist -1.81369
rhand -6.61359 -765.079
rfingers 7.12502
rthumb 19.2424 -794.147
lclavicle 1.39149e-015 3.37934e-015
lhumerus -2.07638 -37.5025 67.3789
lradius 52.8936
lwrist 0.255964
lhand -31.8013 -25.1446
lfingers 7.12502
lthumb -5.05689 -355.225
rfemur -118.31 4.80575 19.9665
rtibia 43.4129
rfoot -232.075 12.4376
rtoes -25.3923
lfemur -120.369 -2.0382 -18.786
ltibia 44.0213
lfoot 144.857 12.343
ltoes 28.5584
5205
root 10.4408 7.80529 4.63864 30.6676 -2.35459 0.866321
lowerback 20.5109 1.05867 -2.4262
upperback 11.7637 0.937757 -0.0394884
thorax 1.24834 0.340987 1.15307
lowerneck 7.53065 -4.22915 -1.4938
upperneck -31.7849 -3.14711 11.6869
head -11.2664 -2.81899 5.00724
rclavicle -1.21259e-014 5.46658e-015
rhumerus -8.55539 17.1475 -75.9435
rradius 56.4216
rwrist -2.14958
rhand -6.01723 -765.18
rfingers 7.12502
rthumb 19.8158 -794.19
lclavicle -1.21259e-014 5.46658e-015
lhumerus -2.11013 -37.5215 67.484
lradius 52.9036
lwrist 0.236398
lhand -31.8868 -24.6997
lfingers 7.12502
lthumb -5.13945 -354.782
rfemur -117.793 4.77762 19.8163
rtibia 44.116
rfoot -232.161 11.792
rtoes -23.8116
lfemur -119.825 -2.14572 -18.8544
ltibia 44.3322
lfoot 144.124 10.9692
ltoes 22.3055
5206
root 10.4378 7.89934 4.63327 30.7383 -2.36755 0.998752
lowerback 20.4636 1.06593 -2.54331
upperback 11.7084 0.928816 -0.0825599
thorax 1.21143 0.33374 1.17533
lowerneck 7.47914 -4.09533 -1.57176
upperneck -31.7633 -2.9433 11.7349
head -11.2614 -2.71729 5.01463
rclavicle -5.46658e-015 4.87022e-015
rhumerus -8.49167 17.0237 -75.9509
rradius 56.4135
rwrist -2.42387
rhand -5.2868 -765.783
rfingers 7.12502
rthumb 20.5178 -794.719
lclavicle -5.46658e-015 4.87022e-015
lhumerus -2.09406 -37.44 67.4068
lradius 53.0337
lwrist 0.260445
lhand -30.9544 -23.2442
lfingers 7.12502
lthumb -4.23913 -353.307
rfemur -117.235 4.75934 19.7018
rtibia 44.9979
rfoot -231.722 12.804
rtoes -26.5189
lfemur -119.147 -2.25265 -18.9702
ltibia 46.2812
lfoot 145.376 10.7362
ltoes 23.5225
5207
root 10.4337 7.99221 4.63098 30.9235 -2.34962 1.00649
lowerback 20.173 1.04634 -2.55877
upperback 11.672 0.910229 -0.103205
thorax 1.31712 0.323899 1.16849
lowerneck 7.52807 -3.96675 -1.65542
upperneck -31.8634 -2.76544 11.7033
head -11.3245 -2.62114 5.00846
rclavicle 4.47266e-015 9.74045e-015
rhumerus -8.44303 17.0959 -75.8968
rradius 56.6304
rwrist -2.91137
rhand -4.41219 -766.832
rfingers 7.12502
rthumb 21.3581 -795.675
lclavicle 4.47266e-015 9.74045e-015
lhumerus -2.03005 -37.2202 67.2535
lradius 53.2697
lwrist 0.462289
lhand -30.2099 -22.83
lfingers 7.12502
lthumb -3.52021 -352.879
rfemur -116.738 4.77786 19.7477
rtibia 45.9358
rfoot -231.281 13.9387
rtoes -29.0368
lfemur -118.64 -2.15359 -18.6998
ltibia 46.4183
lfoot 145.288 12.2069
ltoes 27.9799
5208
root 10.4312 8.08632 4.62991 31.271 -2.19231 0.924368
lowerback 19.7217 0.962602 -2.33967
upperback 11.5566 0.85105 -0.113767
thorax 1.41973 0.306054 1.04835
lowerneck 6.80572 -4.17564 -1.02613
upperneck -31.6967 -3.04854 11.4883
head -11.114 -2.78962 4.80541
rclavicle -2.08724e-015 6.36111e-015
rhumerus -8.47313 17.185 -75.8636
rradius 56.8288
rwrist -3.38868
rhand -3.87434 -767.459
rfingers 7.12502
rthumb 21.8746 -796.242
lclavicle -2.08724e-015 6.36111e-015
lhumerus -2.01469 -37.1519 67.0355
lradius 53.5059
lwrist 1.05756
lhand -29.3296 -22.4031
lfingers 7.12502
lthumb -2.67001 -352.44
rfemur -116.328 4.68812 19.822
rtibia 46.8467
rfoot -231.149 14.2002
rtoes -29.3268
lfemur -118.36 -2.25023 -18.4015
ltibia 47.1083
lfoot 145.124 11.1057
ltoes 23.341
5209
root 10.4298 8.18555 4.6294 31.5621 -2.08419 1.03474
lowerback 19.3477 0.893393 -2.27239
upperback 11.423 0.783332 -0.144879
thorax 1.4645 0.278341 0.992363
lowerneck 7.27209 -4.24493 -0.891903
upperneck -32.1002 -3.13782 11.3419
head -11.3696 -2.84515 4.78405
rclavicle 5.66536e-015 -2.98177e-016
rhumerus -8.50884 17.1834 -75.8157
rradius 56.8997
rwrist -3.68531
rhand -3.71239 -767.559
rfingers 7.12502
rthumb 22.0301 -796.325
lclavicle 5.66536e-015 -2.98177e-016
lhumerus -2.01326 -37.1419 66.8889
lradius 53.6186
lwrist 1.53427
lhand -28.6484 -22.0582
lfingers 7.12502
lthumb -2.01218 -352.088
rfemur -115.867 4.52626 19.7016
rtibia 47.7456
rfoot -231 14.4967
rtoes -29.7475
lfemur -117.86 -2.49642 -18.2636
ltibia 48.2388
lfoot 145.228 9.83734
ltoes 18.7676
5210
root 10.4246 8.29036 4.62268 31.8421 -2.04373 1.23724
lowerback 19.0264 0.885967 -2.37889
upperback 11.3089 0.767107 -0.145454
thorax 1.50188 0.266415 1.05705
lowerneck 7.34412 -4.35819 -0.881097
upperneck -32.3123 -3.29661 11.335
head -11.4561 -2.92531 4.81424
rclavicle 3.97569e-016 4.96962e-016
rhumerus -8.51741 17.1026 -75.6631
rradius 57.0124
rwrist -3.8329
rhand -3.53268 -767.719
rfingers 7.12502
rthumb 22.2027 -796.464
lclavicle 3.97569e-016 4.96962e-016
lhumerus -1.96164 -36.9842 66.9823
lradius 53.5931
lwrist 1.72396
lhand -28.2398 -21.9236
lfingers 7.12502
lthumb -1.61753 -351.95
rfemur -115.398 4.40785 19.5015
rtibia 48.6795
rfoot -230.777 14.7945
rtoes -29.979
lfemur -117.33 -2.71262 -18.4476
ltibia 49.1795
lfoot 145.069 8.61595
ltoes 14.1081
5211
root 10.4181 8.39835 4.61226 32.1781 -1.97866 1.25109
lowerback 18.6473 0.901273 -2.31232
upperback 11.2037 0.80681 -0.127459
thorax 1.57746 0.28898 1.03473
lowerneck 7.0517 -4.48725 -0.826351
upperneck -32.3371 -3.4786 11.3619
head -11.3921 -3.01663 4.82266
rclavicle 1.39149e-015 -2.48481e-015
rhumerus -8.45164 16.9376 -75.4989
rradius 57.1555
rwrist -4.02927
rhand -3.43722 -767.994
rfingers 7.12502
rthumb 22.2943 -796.728
lclavicle 1.39149e-015 -2.48481e-015
lhumerus -1.89502 -36.8418 67.0685
lradius 53.537
lwrist 1.65369
lhand -28.1795 -21.8484
lfingers 7.12502
lthumb -1.55926 -351.874
rfemur -114.928 4.37872 19.4534
rtibia 49.7285
rfoot -230.536 14.8502
rtoes -29.7811
lfemur -116.892 -2.77133 -18.5096
ltibia 49.7355
lfoot 144.283 5.44806
ltoes -1.39142
5212
root 10.4122 8.50809 4.60792 32.3569 -1.96743 1.1817
lowerback 18.3763 0.922481 -2.23322
upperback 11.1025 0.851514 -0.122444
thorax 1.60361 0.315168 0.990066
lowerneck 6.97898 -4.4544 -0.964145
upperneck -32.2914 -3.43034 11.4496
head -11.3551 -2.98486 4.86794
rclavicle -4.17448e-015 -7.05686e-015
rhumerus -8.44472 16.7601 -75.4187
rradius 57.279
rwrist -4.25494
rhand -3.43378 -768.12
rfingers 7.12502
rthumb 22.2976 -796.853
lclavicle -4.17448e-015 -7.05686e-015
lhumerus -2.00197 -36.7597 67.0089
lradius 53.6014
lwrist 1.43249
lhand -28.3495 -21.6508
lfingers 7.12502
lthumb -1.72343 -351.678
rfemur -114.259 4.42884 19.4248
rtibia 50.8604
rfoot -230.245 14.7894
rtoes -29.6251
lfemur -116.204 -2.71309 -18.3937
ltibia 50.6598
lfoot 144.28 5.02392
ltoes -3.97684
5213
root 10.4058 8.62088 4.60685 32.465 -1.9966 1.27077
lowerback 18.1461 0.926226 -2.36139
upperback 10.977 0.843238 -0.158191
thorax 1.58411 0.307588 1.02759
lowerneck 7.02283 -4.33147 -1.20966
upperneck -32.1754 -3.24334 11.6151
head -11.3201 -2.88462 4.94728
rclavicle 1.39149e-015 2.18663e-015
rhumerus -8.59866 16.6383 -75.4516
rradius 57.4334
rwrist -4.31449
rhand -3.38389 -768.319
rfingers 7.12502
rthumb 22.3455 -797.047
lclavicle 1.39149e-015 2.18663e-015
lhumerus -2.2034 -36.7354 66.8128
lradius 53.7931
lwrist 1.58665
lhand -28.317 -21.4266
lfingers 7.12502
lthumb -1.69207 -351.454
rfemur -113.522 4.4249 19.2333
rtibia 51.9679
rfoot -229.875 14.9337
rtoes -30.3051
lfemur -115.417 -2.72071 -18.2743
ltibia 52.0408
lfoot 144.94 6.35694
ltoes 2.82703
